# xmcd
#
# Track frame offsets:
# 150
# 17332
# 34533
# 49388
# 63242
# 82572
# 91771
# 106834
# 122804
# 146544
# 156962
#
# Disc length: 2361 seconds
#
# Revision: 0
# Processed by: cddbd v1.5.1PL2 Copyright (c) Steve Scherf et al.
# Submitted via: Audion 3.0.2 (http://www.panic.com/audion/)
#
DISCID=7909370b
DTITLE=Lark Watts - This Town
DYEAR=1900
DGENRE=
TTITLE0=This Town
TTITLE1=Angelina
TTITLE2=Nothin' Ever Happens
TTITLE3=Russians
TTITLE4=Kansas City
TTITLE5=Fuck Me Up
TTITLE6=Whore
TTITLE7=Beautiful
TTITLE8=Nowhere Girl
TTITLE9=Worse Than Whiskey
TTITLE10=16th Ave.
EXTD=
EXTT0=
EXTT1=
EXTT2=
EXTT3=
EXTT4=
EXTT5=
EXTT6=
EXTT7=
EXTT8=
EXTT9=
EXTT10=
PLAYORDER=
